<svg xmlns="http://www.w3.org/2000/svg" xmlns:xlink="http://www.w3.org/1999/xlink" version="1.1" id="Layer_1" x="0px" y="0px" viewBox="0 0 100 100" enable-background="new 0 0 100 100" xml:space="preserve" height="100px" width="100px">
<path d="M97.58,87.34c-0.07,0-0.17-0.02-0.2-0.12c-0.01-0.09-0.04-0.18-0.07-0.26c-2.71-5.97-8.79-6.17-9.05-6.17c0,0-0.01,0-0.02,0  c-0.5,0-0.93,0.38-0.99,0.88l-0.7,6.05c0,0.05-0.01,0.09-0.02,0.12c-0.09,0-0.21-0.01-0.26-0.02l-10.11-1.16  c-0.9-0.11-1.03-0.46-1.07-0.58c-0.2-0.59,0.21-1.68,0.88-2.35c0.61-0.6,1.75-1,2.64-0.91c0.38,0.03,0.59,0.15,0.65,0.24  c0.76,1.09,1.85,1.14,2.54,0.73c0.76-0.46,1.05-1.41,0.64-2.21c-1.92-3.45-5.43-3.93-8.9-3.58l21.55-34.2  c0.23-0.35,5.56-8.68,3.64-20.1l-0.2-1.2l-1.15,0.44c-0.27,0.1-6.65,2.63-11.84,10.96c-4.13,6.64-14.68,23.61-18.44,29.65V19.87  c1.22,0.9,1.9,1.06,4.56,1.06c1.57,0,2.57-0.45,2.96-1.34c0.59-1.34-0.65-2.72-0.7-2.78c-0.37-0.41-0.54-0.88-0.49-1.36  c0.07-0.59,0.47-1.16,1.12-1.6c1.26-0.86,5.06-0.58,8.51,0.67c1.32,0.48,2.54,0.71,3.72,0.71c1.08,0,1.92-0.2,2.54-0.35  c0.27-0.06,0.5-0.12,0.72-0.14c1.99-0.22,2.19-1.55,2.28-2.19c0.06-0.34,0.16-1.21,0.26-2.03c0.09-0.76,0.17-1.48,0.2-1.66  c0.07-0.43,0-0.9-0.2-1.27c-0.27-0.51-0.73-0.84-1.3-0.93c-0.44-0.09-4.14-1.26-7.4-2.32c-0.12-0.03-0.25-0.05-0.37-0.04L63.6,5.47  c-2.49-3.08-6.07-5.01-10.05-5.01C46.08,0.46,40,7.28,40,15.66v32.02l-4.44-0.01l-1.58-5.69c-0.15-0.53-0.7-0.84-1.23-0.69  c-0.01,0-0.01,0-0.02,0.01c-0.01,0-0.01,0-0.02,0c-0.34,0.05-0.64,0.26-0.78,0.59l-3.71,8.52c-0.06,0.13-0.08,0.27-0.08,0.4  c0,0.39,0.22,0.76,0.6,0.92c0.5,0.22,1.09-0.01,1.31-0.52l2.7-6.18l1.08,3.9c0.01,0.05,0.03,0.09,0.05,0.13  c0.05,0.13,0.13,0.24,0.22,0.33c0.04,0.04,0.09,0.07,0.14,0.11c0.06,0.04,0.12,0.07,0.18,0.1c0.06,0.02,0.11,0.04,0.17,0.05  c0.06,0.01,0.13,0.02,0.2,0.02L40,49.68v34.65c0,8.39,6.08,15.21,13.55,15.21c4.17,0,7.9-2.12,10.38-5.46l26.25,0.97h0.04  c0.1,0,0.2-0.02,0.29-0.05l8.03-2.46c0.38-0.12,0.65-0.45,0.7-0.84l0.19-1.67C99.69,87.77,98.08,87.4,97.58,87.34z M67.24,66.55  c1.56-2.52,15.23-23.93,20-31.59c3.54-5.69,7.72-8.49,9.71-9.59c1.17,9.95-3.48,17.26-3.54,17.35L70.93,78.38  c-0.69,0.13-1.35,0.27-1.99,0.4c-0.6,0.13-1.17,0.25-1.7,0.34V66.55z M83.44,6.31c1.72,0.55,6.34,2.04,7.36,2.29  c-0.04,0.27-0.12,0.95-0.21,1.68c-0.09,0.8-0.19,1.64-0.24,1.97c-0.02,0.08-0.05,0.33-0.09,0.38c0,0-0.09,0.08-0.45,0.12  c-0.28,0.03-0.59,0.1-0.95,0.19c-0.58,0.13-1.24,0.29-2.08,0.29c-0.95,0-1.94-0.19-3.04-0.59c-2.31-0.84-4.76-1.31-6.71-1.31  c-1.55,0-2.77,0.29-3.61,0.87c-1.14,0.78-1.84,1.85-1.97,3.02c-0.13,1.05,0.23,2.1,0.99,2.94c0.15,0.16,0.35,0.53,0.38,0.58  c0,0-0.23,0.19-1.16,0.19c-2.54,0-2.61-0.06-3.83-1.02c-0.21-0.16-0.44-0.34-0.71-0.55c-0.01-0.01-0.01-0.01-0.02-0.02v-1.68  c0-1.97-0.34-3.85-0.95-5.58c0-0.01-0.01-0.02-0.01-0.02c-0.32-0.94-0.74-1.82-1.22-2.65L83.44,6.31z M65.1,84.33  c0,7.28-5.18,13.21-11.55,13.21S42,91.61,42,84.33V15.66c0-6.39,4-11.74,9.29-12.94v4.99h4.52V2.72c1.06,0.24,2.07,0.65,3,1.19  c1.03,0.61,1.96,1.38,2.77,2.28c0.34,0.37,0.65,0.76,0.94,1.17c0.37,0.52,0.7,1.06,1,1.64c1,1.96,1.58,4.23,1.58,6.66V84.33z   M97.44,89.8l-0.12,1.02l-7.23,2.22l-24.92-0.92c0.46-0.83,0.83-1.71,1.13-2.64c0,0,0.94-4.37,0.94-5.82v-2.53l0.16-0.01  c0.04,0,0.08-0.01,0.11-0.01c0.57-0.11,1.19-0.24,1.84-0.37c3.33-0.69,7.33-1.53,9.83,0.14c-0.12-0.03-0.25-0.04-0.38-0.06  c-1.47-0.13-3.21,0.48-4.24,1.49c-1.07,1.06-1.88,2.92-1.36,4.42c0.22,0.62,0.86,1.7,2.73,1.91l10.11,1.17  c0.42,0.05,0.9,0.08,1.39-0.14c0.44-0.2,0.99-0.66,1.11-1.72l0.58-5.05c1.54,0.28,4.69,1.28,6.32,4.79c0.16,0.59,0.69,1.5,1.91,1.64  c0.04,0.01,0.08,0.01,0.09,0.01C97.45,89.4,97.47,89.53,97.44,89.8z"/>
<path d="M20.84,51.727c-0.38-0.16-0.6-0.53-0.6-0.92c0-0.13,0.03-0.27,0.08-0.4l3.71-8.52c0.15-0.33,0.45-0.54,0.78-0.59  c0,0,0.01-0.01,0.02,0c0.5-0.15,1.03,0.1,1.22,0.58l1.78,4.53c0.2,0.51-0.05,1.09-0.56,1.29c-0.52,0.2-1.1-0.05-1.3-0.56L25,44.677  l-2.84,6.53C21.94,51.717,21.35,51.947,20.84,51.727z"/>
<path d="M4.89,51.727c-0.38-0.16-0.6-0.53-0.6-0.92c0-0.13,0.02-0.27,0.08-0.4l3.71-8.52c0.13-0.31,0.4-0.51,0.72-0.57  c0.02-0.01,0.04-0.02,0.06-0.02c0.01,0,0.01-0.01,0.02,0c0.5-0.15,1.03,0.1,1.22,0.58l1.78,4.53c0.2,0.51-0.05,1.09-0.57,1.29  c-0.51,0.2-1.09-0.05-1.29-0.56l-0.97-2.46l-2.85,6.53C5.98,51.717,5.39,51.947,4.89,51.727z"/>
<path d="M12.79,51.727c-0.38-0.16-0.61-0.53-0.61-0.92c0-0.13,0.03-0.27,0.09-0.4l3.71-8.52c0.13-0.31,0.4-0.51,0.72-0.57  c0.02-0.01,0.04-0.02,0.06-0.02c0.01,0,0.01-0.01,0.02,0c0.49-0.15,1.02,0.1,1.22,0.58l1.77,4.53c0.21,0.51-0.05,1.09-0.56,1.29  c-0.51,0.2-1.09-0.05-1.3-0.56l-0.97-2.46l-2.84,6.53C13.88,51.717,13.29,51.947,12.79,51.727z"/>
<path d="M0.853,44.335c0-0.388,0.228-0.757,0.607-0.919c0.508-0.218,1.096,0.018,1.313,0.525l1.043,2.434  c0.219,0.507-0.018,1.096-0.525,1.313c-0.508,0.218-1.096-0.018-1.313-0.525l-1.043-2.434C0.88,44.6,0.853,44.467,0.853,44.335z"/>
<path d="M11.05,47.757c-0.01,0-0.01,0-0.01,0v-0.01h0.04C11.06,47.747,11.06,47.757,11.05,47.757z"/>
<path d="M10.9,47.767c0.04,0,0.09-0.01,0.14-0.02v0.01C10.99,47.757,10.94,47.767,10.9,47.767z"/>
<path d="M10.9,47.767c0.04,0,0.09-0.01,0.14-0.02h0.04c-0.02,0-0.02,0.01-0.03,0.01s-0.01,0-0.01,0  C10.99,47.757,10.94,47.767,10.9,47.767z"/>
</svg>