<svg xmlns="http://www.w3.org/2000/svg" xmlns:xlink="http://www.w3.org/1999/xlink" version="1.1" id="Layer_1" x="0px" y="0px" viewBox="0 0 100 100" enable-background="new 0 0 100 100" xml:space="preserve" height="100px" width="100px">
<g>
	<path d="M32.938,66.207c-0.549-0.547-1.438-0.547-1.986,0l-4.497,4.496c-0.548,0.549-0.548,1.438,0,1.986   c0.274,0.273,0.634,0.411,0.993,0.411s0.719-0.138,0.993-0.411l4.497-4.496C33.486,67.645,33.486,66.756,32.938,66.207z"/>
	<path d="M83.739,74.765c-9.23-2.852-18.767-3.657-28.35-2.402l-0.75,0.098c-0.472,0.062-0.881,0.358-1.086,0.788   c-0.205,0.429-0.178,0.934,0.071,1.339l2.229,3.631c-10.689,1.576-21.618,2.494-32.594,2.759l11.265-5.2   c0.112-0.052,0.217-0.118,0.312-0.197c0.702-0.587,4.214-3.66,4.371-6.535c0.009-0.158,0.014-0.316,0.014-0.475   c0-0.664-0.083-1.314-0.228-1.946c0.483,0.083,0.977,0.13,1.483,0.13c2.124,0,4.099-0.758,5.419-2.078l7.03-7.03l8.761-8.761   c8.824-8.824,15.959-19.179,21.208-30.776c0.241-0.533,0.127-1.159-0.286-1.572c-0.415-0.414-1.042-0.525-1.572-0.287   c-11.598,5.249-21.952,12.384-30.776,21.208L41.5,46.219l-7.03,7.029c-1.618,1.618-2.4,4.311-1.959,6.902   c-0.773-0.174-1.578-0.255-2.41-0.213c-2.876,0.157-5.95,3.669-6.537,4.371c-0.079,0.095-0.146,0.2-0.197,0.312L15.4,81.882   c-0.002,0.005-0.002,0.01-0.004,0.016c-0.051,0.114-0.084,0.235-0.104,0.363c-0.005,0.03-0.006,0.059-0.009,0.088   c-0.004,0.041-0.012,0.081-0.012,0.122c0,0.071,0.011,0.14,0.021,0.208c0.003,0.017,0.002,0.033,0.005,0.05   c0.023,0.125,0.066,0.242,0.12,0.354c0.012,0.024,0.025,0.046,0.038,0.07c0.063,0.113,0.137,0.22,0.228,0.311c0,0,0,0,0,0s0,0,0,0   c0.13,0.13,0.285,0.233,0.458,0.304c0.004,0.002,0.008,0.002,0.012,0.004c0.162,0.065,0.338,0.103,0.523,0.103c0,0,0,0,0,0l0,0h0   c14.044,0,28.073-1.076,41.699-3.198c0.465-0.072,0.861-0.372,1.059-0.799s0.168-0.923-0.078-1.323l-2.195-3.577   c8.706-0.95,17.36-0.122,25.752,2.471c0.743,0.226,1.527-0.187,1.756-0.928C84.896,75.78,84.48,74.994,83.739,74.765z    M47.714,58.886l-7.455-7.455l2.234-2.234l7.455,7.455L47.714,58.886z M52.247,39.443c7.676-7.676,16.546-14.04,26.408-18.953   c-4.914,9.862-11.277,18.732-18.954,26.408l-7.767,7.768l-5.064-5.064l-2.391-2.391L52.247,39.443z M36.456,55.234l1.818-1.818   l7.455,7.455l-1.817,1.818c-0.787,0.786-2.07,1.256-3.434,1.256c-1.482,0-2.828-0.529-3.788-1.489   C34.625,60.392,34.873,56.816,36.456,55.234z M25.837,65.972c1.164-1.348,3.222-3.165,4.414-3.23   c1.671-0.091,3.273,0.521,4.453,1.701c1.103,1.103,1.709,2.568,1.709,4.127c0,0.107-0.003,0.213-0.009,0.321   c-0.065,1.195-1.883,3.253-3.23,4.417l-13.626,6.291L25.837,65.972z"/>
</g>
</svg>